<?xml version="1.0" standalone="no"?>
<!DOCTYPE svg PUBLIC "-//W3C//DTD SVG 20010904//EN"
 "http://www.w3.org/TR/2001/REC-SVG-20010904/DTD/svg10.dtd">
<svg version="1.0" xmlns="http://www.w3.org/2000/svg"
 width="700.000000pt" height="700.000000pt" viewBox="0 0 700.000000 700.000000"
 preserveAspectRatio="xMidYMid meet">
<metadata>
Created by potrace 1.11, written by Peter Selinger 2001-2013
</metadata>
<g transform="translate(0.000000,700.000000) scale(0.100000,-0.100000)"
fill="#000000" stroke="none">
<path d="M4207 6644 c-1 -1 -54 -4 -118 -8 -63 -4 -124 -8 -135 -10 -10 -2
-50 -7 -89 -11 -38 -4 -72 -8 -75 -10 -3 -1 -27 -6 -55 -9 -27 -4 -68 -11 -90
-16 -22 -5 -51 -11 -65 -13 -163 -31 -434 -116 -610 -193 -501 -219 -905 -568
-1098 -949 -37 -73 -93 -203 -89 -206 1 -1 31 -3 67 -4 96 -5 241 -15 270 -19
60 -9 191 -31 235 -40 64 -14 98 -23 210 -58 120 -37 163 -52 223 -81 18 -8
36 -6 85 12 195 72 532 160 677 177 30 3 58 8 61 10 3 2 34 6 70 9 35 4 75 8
87 10 154 24 700 25 842 1 14 -3 52 -7 85 -11 50 -5 202 -30 306 -50 15 -3 88
-21 163 -40 653 -167 1208 -506 1555 -948 l53 -67 38 77 c33 69 85 212 96 268
30 150 35 191 35 305 6 723 -569 1377 -1486 1690 -228 78 -497 139 -685 156
-41 3 -78 8 -81 10 -14 8 -473 25 -482 18z"/>
<path d="M3919 5126 c-2 -2 -40 -7 -85 -10 -44 -4 -89 -8 -100 -10 -10 -2 -41
-7 -69 -10 -103 -15 -122 -18 -222 -37 -93 -18 -329 -80 -427 -113 l-39 -13
29 -18 c152 -94 250 -170 355 -274 193 -193 307 -398 353 -636 15 -80 16 -289
2 -365 -37 -188 -146 -414 -259 -535 -26 -27 -51 -65 -46 -69 17 -14 380 -84
477 -91 138 -11 135 -10 192 -84 14 -18 43 -56 65 -84 23 -29 132 -170 244
-315 112 -145 205 -261 207 -259 4 3 22 83 40 172 2 11 6 31 9 45 3 14 8 36
11 50 3 14 7 36 10 50 15 74 66 323 77 370 l12 55 105 16 c98 15 131 20 205
34 50 10 215 53 305 80 531 159 1001 469 1277 842 29 40 53 77 53 83 0 46
-296 364 -450 482 -416 321 -979 544 -1555 617 -44 6 -100 13 -125 17 -48 7
-644 16 -651 10z"/>
<path d="M1746 5068 c-3 -12 -8 -39 -11 -58 -2 -19 -7 -48 -11 -65 -9 -46 -11
-265 -3 -310 4 -22 9 -60 12 -85 6 -49 29 -137 47 -184 l11 -30 38 40 c176
185 427 364 701 501 70 35 118 64 110 67 -138 48 -233 74 -370 102 -38 8 -37
8 -125 19 -33 4 -69 9 -80 11 -11 2 -86 7 -167 10 l-147 6 -5 -24z"/>
<path d="M1535 5069 c-190 -24 -350 -60 -492 -110 -483 -170 -836 -483 -957
-849 -16 -46 -43 -172 -44 -200 -3 -93 -2 -188 2 -200 3 -8 7 -26 10 -40 41
-235 172 -456 373 -632 79 -69 94 -80 171 -132 39 -27 72 -54 72 -60 0 -6 -11
-40 -24 -76 -82 -218 -257 -712 -254 -715 2 -2 39 17 83 42 44 24 102 57 130
72 27 16 149 84 270 153 487 276 494 280 505 273 15 -9 12 27 -5 69 -17 40
-53 185 -61 244 -22 157 -24 304 -9 442 5 41 9 77 10 80 1 3 7 32 14 65 47
224 167 475 334 695 l34 45 -29 83 c-15 45 -30 90 -31 100 -2 9 -9 42 -15 72
-6 30 -16 76 -21 102 -11 62 -12 312 -1 363 4 22 11 59 14 82 6 46 12 44 -79
32z"/>
<path d="M2710 4827 c-245 -109 -490 -261 -677 -422 -50 -43 -193 -191 -193
-200 0 -18 98 -184 156 -265 108 -150 275 -317 438 -437 39 -29 76 -56 81 -61
31 -25 210 -130 303 -176 118 -60 294 -134 386 -162 l58 -18 54 59 c123 137
213 297 255 455 18 66 23 112 23 210 0 184 -21 276 -101 437 -111 222 -327
433 -590 575 -49 26 -90 48 -93 48 -3 0 -48 -19 -100 -43z"/>
<path d="M1718 4053 c-271 -380 -366 -822 -263 -1232 14 -53 37 -128 52 -168
24 -62 31 -72 57 -78 45 -11 431 -14 501 -5 33 5 85 12 115 15 30 4 58 9 61
10 3 2 27 7 55 11 70 9 243 59 354 101 160 61 307 140 441 237 l60 44 -73 27
c-194 73 -406 178 -568 282 -72 47 -183 126 -200 143 -3 3 -34 29 -70 59 -168
140 -316 314 -432 509 l-56 93 -34 -48z"/>
<path d="M6720 3814 c-224 -283 -520 -515 -875 -685 -176 -84 -311 -135 -520
-195 -122 -35 -397 -94 -440 -94 -13 0 -26 -4 -29 -8 -5 -8 -48 -198 -60 -264
-4 -23 -18 -93 -82 -395 -18 -90 -36 -175 -39 -190 -2 -16 -7 -41 -11 -56 l-6
-28 -31 41 c-18 23 -66 86 -107 140 -41 53 -86 112 -100 131 -14 18 -63 83
-110 143 -47 61 -119 156 -160 211 -41 55 -77 102 -80 105 -5 4 -99 127 -105
138 -1 1 -52 9 -113 17 -61 8 -121 17 -134 19 -13 3 -40 8 -62 11 -51 7 -245
51 -308 70 l-50 14 -68 -54 c-318 -254 -768 -418 -1234 -451 -74 -5 -327 -5
-353 0 -13 3 -25 1 -28 -5 -4 -5 27 -60 69 -122 218 -328 531 -588 951 -792
219 -106 498 -205 675 -240 8 -2 33 -8 55 -13 22 -6 54 -13 70 -16 17 -2 71
-11 120 -20 50 -8 110 -18 135 -21 25 -3 52 -8 60 -10 69 -18 595 -26 755 -12
114 11 247 28 332 43 19 4 45 -9 102 -48 42 -29 81 -56 86 -61 22 -19 1125
-797 1129 -797 5 0 -36 118 -176 515 -33 94 -66 188 -73 210 -8 22 -34 99 -60
170 -25 72 -56 157 -67 190 -11 33 -24 67 -29 76 -11 22 -2 31 81 73 374 190
699 477 895 790 88 142 177 347 201 461 7 39 24 120 29 150 18 91 13 312 -10
450 -17 106 -76 283 -135 404 l-36 74 -54 -69z"/>
</g>
</svg>
